name analog
datacolumns 19
datarows 56
range 0.0 0.0275
endheader
time	ground_force_vx	ground_force_vy	ground_force_vz	ground_force_px	ground_force_py	ground_force_pz	l_ground_force_vx	l_ground_force_vy	l_ground_force_vz	l_ground_force_px	l_ground_force_py	l_ground_force_pz	ground_torque_x	ground_torque_y	ground_torque_z	l_ground_torque_x	l_ground_torque_y	l_ground_torque_z
0.0	-0.0	-0.0	-0.0	7.686293601989746	35.6946907043457	-349.4635009765625	-6.149353504180908	-37.06692123413086	-264.65692138671875	-0.0	-0.0	-0.0	-0.0	-0.0	-0.0	67594.8515625	14891.5771484375	-4499.05615234375
0.0005	-0.0	-0.0	-0.0	7.578532695770264	36.13042831420898	-349.0537414550781	-6.447673320770264	-36.97464370727539	-266.5137634277344	-0.0	-0.0	-0.0	-0.0	-0.0	-0.0	67744.09375	14970.7900390625	-4468.30029296875
0.001	-0.0	-0.0	-0.0	7.817631721496582	35.680294036865234	-348.5140991210937	-6.727974891662598	-37.03475570678711	-265.2825012207031	-0.0	-0.0	-0.0	-0.0	-0.0	-0.0	67746.453125	15257.87890625	-4507.55126953125
0.0015	-0.0	-0.0	-0.0	7.742084980010986	35.99469757080078	-348.66473388671875	-6.728057384490967	-37.643856048583984	-267.4501342773437	-0.0	-0.0	-0.0	-0.0	-0.0	-0.0	68104.9296875	15396.48046875	-4680.9384765625
0.002	-0.0	-0.0	-0.0	8.357892036437988	35.323509216308594	-348.3458557128906	-6.7089667320251465	-37.09510803222656	-267.1763000488281	-0.0	-0.0	-0.0	-0.0	-0.0	-0.0	68084.9140625	15483.232421875	-4741.82861328125
0.0025	-0.0	-0.0	-0.0	7.822794914245605	35.37091827392578	-348.5337219238281	-7.069199085235596	-37.18343353271485	-267.04656982421875	-0.0	-0.0	-0.0	-0.0	-0.0	-0.0	67943.375	15437.85546875	-4740.30517578125
0.003	-0.0	-0.0	-0.0	7.864327430725098	35.43252944946289	-348.6685485839844	-7.08309268951416	-37.73313522338867	-267.1853942871094	-0.0	-0.0	-0.0	-0.0	-0.0	-0.0	68227.6484375	15740.763671875	-4781.32275390625
0.0035	-0.0	-0.0	-0.0	7.775068759918213	35.247737884521484	-346.7418212890625	-7.171851634979248	-37.536720275878906	-269.33282470703125	-0.0	-0.0	-0.0	-0.0	-0.0	-0.0	68517.7578125	15749.5517578125	-4808.8994140625
0.004	-0.0	-0.0	-0.0	7.761314392089844	34.92545700073242	-346.8226928710937	-7.049070358276367	-38.1278076171875	-269.330322265625	-0.0	-0.0	-0.0	-0.0	-0.0	-0.0	68657.25	15841.5615234375	-4877.3017578125
0.0045000000000000005	-0.0	-0.0	-0.0	7.637386798858643	35.31671524047852	-347.1759033203125	-7.076110363006592	-37.97832489013672	-271.07684326171875	-0.0	-0.0	-0.0	-0.0	-0.0	-0.0	68594.28125	16046.4912109375	-4973.11865234375
0.005	-0.0	-0.0	-0.0	7.966856956481934	35.2549934387207	-346.1700134277344	-7.403583526611328	-38.27023315429688	-270.3795166015625	-0.0	-0.0	-0.0	-0.0	-0.0	-0.0	69067.4921875	15907.0859375	-5103.62841796875
0.0055	-0.0	-0.0	-0.0	8.30492115020752	35.268707275390625	-345.8699035644531	-7.341518878936768	-38.33700942993164	-273.1211242675781	-0.0	-0.0	-0.0	-0.0	-0.0	-0.0	68873.4609375	16216.048828125	-5087.509765625
0.006	-0.0	-0.0	-0.0	7.872587203979492	34.91228103637695	-345.71002197265625	-7.465105056762695	-38.73320388793945	-272.3382568359375	-0.0	-0.0	-0.0	-0.0	-0.0	-0.0	69016.578125	16290.3095703125	-5040.11181640625
0.006500000000000001	-0.0	-0.0	-0.0	7.953082084655762	34.81419372558594	-346.6280517578125	-7.336362361907959	-38.773223876953125	-272.5826110839844	-0.0	-0.0	-0.0	-0.0	-0.0	-0.0	69249.515625	16268.8505859375	-5066.8583984375
0.007	-0.0	-0.0	-0.0	8.256725311279297	35.3809928894043	-344.3504638671875	-7.4517059326171875	-38.63211441040039	-271.29083251953125	-0.0	-0.0	-0.0	-0.0	-0.0	-0.0	69458.71875	16442.560546875	-5041.63134765625
0.0075	-0.0	-0.0	-0.0	8.207366943359375	34.63549041748047	-346.2075500488281	-7.349788665771484	-38.74692535400391	-272.2490234375	-0.0	-0.0	-0.0	-0.0	-0.0	-0.0	69353.40625	16489.384765625	-5155.77978515625
0.008	-0.0	-0.0	-0.0	8.246826171875	34.76085662841797	-344.40252685546875	-7.047523498535156	-38.66191101074219	-273.2824401855469	-0.0	-0.0	-0.0	-0.0	-0.0	-0.0	69378.6796875	16400.96484375	-5029.1103515625
0.0085	-0.0	-0.0	-0.0	7.916049957275391	34.873653411865234	-344.6617431640625	-7.149167537689209	-38.63563537597656	-271.7428894042969	-0.0	-0.0	-0.0	-0.0	-0.0	-0.0	69637.9453125	16403.43359375	-5095.24951171875
0.009000000000000001	-0.0	-0.0	-0.0	7.902695178985596	34.799949645996094	-343.6007080078125	-7.514388561248779	-38.734352111816406	-273.6324157714844	-0.0	-0.0	-0.0	-0.0	-0.0	-0.0	69493.4921875	16789.193359375	-5202.03759765625
0.0095	-0.0	-0.0	-0.0	8.131115913391113	34.939117431640625	-344.9088439941406	-7.161520481109619	-38.773223876953125	-272.4909362792969	-0.0	-0.0	-0.0	-0.0	-0.0	-0.0	69411.21875	16652.208984375	-5261.15283203125
0.01	-0.0	-0.0	-0.0	8.334139823913574	34.824188232421875	-345.3077392578125	-7.7436065673828125	-38.52108383178711	-271.29083251953125	-0.0	-0.0	-0.0	-0.0	-0.0	-0.0	69518.8671875	16818.423828125	-5194.06787109375
0.0105	-0.0	-0.0	-0.0	7.582893371582031	35.05388641357422	-345.2599792480469	-7.705036640167236	-38.86154174804688	-271.0928039550781	-0.0	-0.0	-0.0	-0.0	-0.0	-0.0	69321.1796875	16812.00390625	-5329.49462890625
0.011	-0.0	-0.0	-0.0	7.506603717803955	34.671730041503906	-346.57061767578125	-7.578635215759277	-38.47067260742188	-271.1923522949219	-0.0	-0.0	-0.0	-0.0	-0.0	-0.0	69459.234375	16976.78515625	-5337.80419921875
0.0115	-0.0	-0.0	-0.0	8.130874633789062	34.6207160949707	-344.60223388671875	-7.971278667449951	-38.167476654052734	-271.2408752441406	-0.0	-0.0	-0.0	-0.0	-0.0	-0.0	69027.953125	17179.484375	-5367.57861328125
0.012	-0.0	-0.0	-0.0	8.066852569580078	34.88786315917969	-347.73516845703125	-7.882650375366211	-38.43249130249024	-270.3922424316406	-0.0	-0.0	-0.0	-0.0	-0.0	-0.0	69004.1640625	16951.296875	-5410.00634765625
0.0125	-0.0	-0.0	-0.0	7.913389205932617	34.54371643066406	-347.5788269042969	-8.09777545928955	-38.3441047668457	-269.59442138671875	-0.0	-0.0	-0.0	-0.0	-0.0	-0.0	68791.28125	17047.11328125	-5486.5634765625
0.013000000000000001	-0.0	-0.0	-0.0	8.271527290344238	34.926605224609375	-344.1895446777344	-8.072681427001953	-37.91489791870117	-268.3944091796875	-0.0	-0.0	-0.0	-0.0	-0.0	-0.0	68737.875	17239.77734375	-5494.859375
0.0135	-0.0	-0.0	-0.0	7.937618732452393	34.81058120727539	-346.92120361328125	-7.971553802490234	-37.80168151855469	-267.4501342773437	-0.0	-0.0	-0.0	-0.0	-0.0	-0.0	68429.671875	17203.29296875	-5481.7587890625
0.014	-0.0	-0.0	-0.0	8.61623764038086	34.65689468383789	-346.51861572265625	-7.742577075958252	-37.75030899047852	-267.59619140625	-0.0	-0.0	-0.0	-0.0	-0.0	-0.0	68483.7578125	17165.900390625	-5337.36669921875
0.0145	-0.0	-0.0	-0.0	8.564208984375	35.7289924621582	-345.3612365722656	-8.023534774780273	-37.87777328491211	-267.0526428222656	-0.0	-0.0	-0.0	-0.0	-0.0	-0.0	68376.7265625	17276.29296875	-5486.740234375
0.015	-0.0	-0.0	-0.0	8.782845497131348	35.016014099121094	-347.2243957519531	-7.730062961578369	-37.588523864746094	-265.75250244140625	-0.0	-0.0	-0.0	-0.0	-0.0	-0.0	68425.7734375	17358.541015625	-5380.1484375
0.0155	-0.0	-0.0	-0.0	8.714423179626465	34.57879638671875	-347.27252197265625	-8.137038230895996	-37.48476791381836	-266.70391845703125	-0.0	-0.0	-0.0	-0.0	-0.0	-0.0	68042.703125	17376.30078125	-5460.11474609375
0.016	-0.0	-0.0	-0.0	8.689772605895996	35.0040397644043	-347.73834228515625	-7.754121780395508	-37.54875946044922	-266.2598876953125	-0.0	-0.0	-0.0	-0.0	-0.0	-0.0	68378.8359375	17413.11328125	-5571.669921875
0.0165	-0.0	-0.0	-0.0	8.689628601074219	34.951175689697266	-348.23541259765625	-8.06063461303711	-37.61304473876953	-265.1009216308594	-0.0	-0.0	-0.0	-0.0	-0.0	-0.0	68165.7421875	17163.056640625	-5512.65625
0.017	-0.0	-0.0	-0.0	8.433816909790039	34.334041595458984	-346.8226928710937	-7.830518245697021	-37.319480895996094	-264.4021301269531	-0.0	-0.0	-0.0	-0.0	-0.0	-0.0	67929.8125	17159.72265625	-5536.5673828125
0.0175	-0.0	-0.0	-0.0	8.718781471252441	34.92720413208008	-347.8122863769531	-7.818450927734375	-37.319149017333984	-264.7037658691406	-0.0	-0.0	-0.0	-0.0	-0.0	-0.0	67978.359375	17327.068359375	-5554.2548828125
0.018000000000000002	-0.0	-0.0	-0.0	8.599838256835938	34.992652893066406	-347.529052734375	-8.090265274047852	-37.51311492919922	-265.3085632324219	-0.0	-0.0	-0.0	-0.0	-0.0	-0.0	67941.25	17591.232421875	-5281.67333984375
0.0185	-0.0	-0.0	-0.0	8.641626358032227	34.772640228271484	-348.37548828125	-8.126076698303223	-37.42495346069336	-266.31005859375	-0.0	-0.0	-0.0	-0.0	-0.0	-0.0	67928.3984375	17368.5546875	-5366.62158203125
0.019	-0.0	-0.0	-0.0	8.963337898254395	34.49809646606445	-347.78936767578125	-7.7831292152404785	-37.67838668823242	-264.3538818359375	-0.0	-0.0	-0.0	-0.0	-0.0	-0.0	67984.6796875	17457.251953125	-5532.6171875
0.0195	-0.0	-0.0	-0.0	8.153205871582031	34.915771484375	-347.9747619628906	-8.002707481384277	-37.74819564819336	-266.14532470703125	-0.0	-0.0	-0.0	-0.0	-0.0	-0.0	68029.6796875	17483.9609375	-5550.75537109375
0.02	-0.0	-0.0	-0.0	8.296577453613281	34.939117431640625	-347.3595886230469	-7.594388008117676	-37.80168151855469	-266.09912109375	-0.0	-0.0	-0.0	-0.0	-0.0	-0.0	68262.203125	17289.025390625	-5403.5546875
0.0205	-0.0	-0.0	-0.0	8.3312349319458	34.41587829589844	-350.03436279296875	-8.015020370483398	-37.92091751098633	-265.7951965332031	-0.0	-0.0	-0.0	-0.0	-0.0	-0.0	68237.0390625	17758.923828125	-5461.94677734375
0.021	-0.0	-0.0	-0.0	8.618949890136719	34.51642990112305	-347.3578491210937	-7.694897651672363	-38.001163482666016	-268.1033020019531	-0.0	-0.0	-0.0	-0.0	-0.0	-0.0	68326.203125	17559.6484375	-5632.11474609375
0.021500000000000002	-0.0	-0.0	-0.0	7.863976955413818	34.772254943847656	-348.0999450683594	-8.11584186553955	-38.320274353027344	-267.36993408203125	-0.0	-0.0	-0.0	-0.0	-0.0	-0.0	68647.875	17827.046875	-5521.59326171875
0.022	-0.0	-0.0	-0.0	8.385787963867188	34.38163757324219	-348.2738342285156	-7.717838287353516	-38.2884521484375	-269.1066589355469	-0.0	-0.0	-0.0	-0.0	-0.0	-0.0	68936.765625	17915.103515625	-5562.38916015625
0.0225	-0.0	-0.0	-0.0	7.7500386238098145	34.58259582519531	-346.0716857910156	-8.016395568847656	-38.15496826171875	-269.5503845214844	-0.0	-0.0	-0.0	-0.0	-0.0	-0.0	69234.53125	17956.828125	-5566.33251953125
0.023	-0.0	-0.0	-0.0	7.894881725311279	34.14815139770508	-346.68951416015625	-7.640322685241699	-38.651458740234375	-272.5111999511719	-0.0	-0.0	-0.0	-0.0	-0.0	-0.0	69380.140625	18138.166015625	-5673.59521484375
0.0235	-0.0	-0.0	-0.0	7.850410461425781	33.96984100341797	-345.1452331542969	-8.072681427001953	-38.618778228759766	-271.334716796875	-0.0	-0.0	-0.0	-0.0	-0.0	-0.0	69905.109375	18368.611328125	-5777.671875
0.024	-0.0	-0.0	-0.0	8.07382583618164	33.73558044433594	-345.3222351074219	-7.873129367828369	-39.12651062011719	-272.4689025878906	-0.0	-0.0	-0.0	-0.0	-0.0	-0.0	70214.8515625	18445.255859375	-5603.4775390625
0.0245	-0.0	-0.0	-0.0	8.017926216125488	33.74634552001953	-345.326904296875	-7.972967624664307	-39.2476921081543	-274.170654296875	-0.0	-0.0	-0.0	-0.0	-0.0	-0.0	70115.1953125	18418.400390625	-5748.15771484375
0.025	-0.0	-0.0	-0.0	7.750341892242432	33.50206756591797	-343.7309875488281	-8.472412109375	-39.50161361694336	-275.571044921875	-0.0	-0.0	-0.0	-0.0	-0.0	-0.0	70634.6328125	18310.712890625	-5811.8935546875
0.025500000000000002	-0.0	-0.0	-0.0	7.894083023071289	33.42390441894531	-343.06707763671875	-8.250102996826172	-39.50144958496094	-276.4852905273437	-0.0	-0.0	-0.0	-0.0	-0.0	-0.0	70568.5234375	18520.005859375	-5878.47265625
0.026000000000000002	-0.0	-0.0	-0.0	7.963894844055176	33.1806526184082	-340.0166320800781	-8.327987670898438	-40.065711975097656	-276.528076171875	-0.0	-0.0	-0.0	-0.0	-0.0	-0.0	70896.0859375	18850.544921875	-5956.1474609375
0.0265	-0.0	-0.0	-0.0	7.593652248382568	32.78923797607422	-341.9633483886719	-8.42752456665039	-40.207763671875	-278.4852905273437	-0.0	-0.0	-0.0	-0.0	-0.0	-0.0	71095.2109375	18829.7421875	-6086.5576171875
0.027	-0.0	-0.0	-0.0	8.153883934020996	32.61104202270508	-337.286865234375	-8.682975769042969	-40.5854377746582	-280.2718200683594	-0.0	-0.0	-0.0	-0.0	-0.0	-0.0	71571.453125	19355.60546875	-6003.9580078125
0.0275	-0.0	-0.0	-0.0	8.510966300964355	31.79425621032715	-338.177734375	-7.990962505340576	-40.53965759277344	-280.18701171875	-0.0	-0.0	-0.0	-0.0	-0.0	-0.0	72112.7890625	19466.03125	-6189.65625
